<svg xmlns="http://www.w3.org/2000/svg" xmlns:xlink="http://www.w3.org/1999/xlink" width="500" zoomAndPan="magnify" viewBox="0 0 375 374.999991" height="500" preserveAspectRatio="xMidYMid meet" version="1.0"><path fill="#ffffff" d="M 199.417969 192.265625 C 199.417969 196.65625 195.859375 200.210938 191.472656 200.210938 C 187.082031 200.210938 183.527344 196.65625 183.527344 192.265625 C 183.527344 187.878906 187.082031 184.320312 191.472656 184.320312 C 195.859375 184.320312 199.417969 187.878906 199.417969 192.265625 Z M 199.417969 192.265625 " fill-opacity="1" fill-rule="nonzero"/><path fill="#ffffff" d="M 191.472656 152.542969 C 169.570312 152.542969 151.746094 170.363281 151.746094 192.265625 C 151.746094 214.167969 169.570312 231.992188 191.472656 231.992188 C 213.375 231.992188 231.195312 214.195312 231.195312 192.265625 C 231.195312 170.351562 213.375 152.542969 191.472656 152.542969 Z M 191.472656 216.101562 C 178.328125 216.101562 167.636719 205.421875 167.636719 192.265625 C 167.636719 179.109375 178.328125 168.433594 191.472656 168.433594 C 204.617188 168.433594 215.308594 179.121094 215.308594 192.265625 C 215.308594 205.410156 204.617188 216.101562 191.472656 216.101562 Z M 191.472656 216.101562 " fill-opacity="1" fill-rule="nonzero"/><path fill="#ffffff" d="M 191.472656 9.535156 C 90.707031 9.535156 8.738281 91.527344 8.738281 192.265625 C 8.738281 293.007812 90.707031 375 191.472656 375 C 292.238281 375 374.207031 293.019531 374.207031 192.265625 C 374.207031 91.511719 292.238281 9.535156 191.472656 9.535156 Z M 84.84375 225.011719 C 88.964844 223.4375 93.539062 225.457031 95.128906 229.550781 C 107.359375 261.128906 134.28125 284.71875 167.140625 292.664062 C 171.402344 293.683594 174.03125 297.980469 172.988281 302.25 C 172.113281 305.898438 168.871094 308.339844 165.296875 308.339844 C 164.675781 308.339844 164.054688 308.277344 163.429688 308.109375 C 125.523438 298.945312 94.441406 271.742188 80.320312 235.285156 C 78.71875 231.203125 80.753906 226.601562 84.84375 225.011719 Z M 168.019531 341.3125 C 167.585938 341.3125 167.15625 341.289062 166.695312 341.210938 C 110.015625 331.867188 62.878906 290.148438 46.632812 235.003906 C 45.386719 230.796875 47.789062 226.359375 52.011719 225.128906 C 56.242188 223.917969 60.640625 226.320312 61.847656 230.515625 C 76.40625 279.878906 118.558594 317.160156 169.265625 325.5625 C 173.597656 326.289062 176.523438 330.367188 175.8125 334.691406 C 175.203125 338.554688 171.832031 341.3125 168.019531 341.3125 Z M 191.472656 247.882812 C 160.8125 247.882812 135.859375 222.941406 135.859375 192.265625 C 135.859375 161.59375 160.8125 136.652344 191.472656 136.652344 C 222.132812 136.652344 247.085938 161.605469 247.085938 192.265625 C 247.085938 222.929688 222.132812 247.882812 191.472656 247.882812 Z M 302.703125 200.210938 C 298.304688 200.210938 294.757812 196.664062 294.757812 192.265625 C 294.757812 135.316406 248.421875 88.984375 191.472656 88.984375 C 187.074219 88.984375 183.527344 85.4375 183.527344 81.039062 C 183.527344 76.640625 187.074219 73.09375 191.472656 73.09375 C 257.191406 73.09375 310.644531 126.558594 310.644531 192.265625 C 310.644531 196.664062 307.097656 200.210938 302.703125 200.210938 Z M 334.480469 200.210938 C 330.082031 200.210938 326.535156 196.664062 326.535156 192.265625 C 326.535156 117.789062 265.925781 57.203125 191.472656 57.203125 C 187.074219 57.203125 183.527344 53.65625 183.527344 49.257812 C 183.527344 44.859375 187.074219 41.3125 191.472656 41.3125 C 274.710938 41.3125 342.425781 109.042969 342.425781 192.265625 C 342.425781 196.664062 338.878906 200.210938 334.480469 200.210938 Z M 334.480469 200.210938 " fill-opacity="1" fill-rule="nonzero"/></svg>