<svg xmlns="http://www.w3.org/2000/svg" xmlns:xlink="http://www.w3.org/1999/xlink" width="500" zoomAndPan="magnify" viewBox="0 0 375 374.999991" height="500" preserveAspectRatio="xMidYMid meet" version="1.0"><path fill="#000000" d="M 195.667969 186.265625 C 195.667969 190.65625 192.109375 194.210938 187.722656 194.210938 C 183.332031 194.210938 179.777344 190.65625 179.777344 186.265625 C 179.777344 181.878906 183.332031 178.320312 187.722656 178.320312 C 192.109375 178.320312 195.667969 181.878906 195.667969 186.265625 Z M 195.667969 186.265625 " fill-opacity="1" fill-rule="nonzero"/><path fill="#000000" d="M 187.722656 146.542969 C 165.820312 146.542969 147.996094 164.363281 147.996094 186.265625 C 147.996094 208.167969 165.820312 225.992188 187.722656 225.992188 C 209.625 225.992188 227.445312 208.195312 227.445312 186.265625 C 227.445312 164.351562 209.625 146.542969 187.722656 146.542969 Z M 187.722656 210.101562 C 174.578125 210.101562 163.886719 199.421875 163.886719 186.265625 C 163.886719 173.109375 174.578125 162.433594 187.722656 162.433594 C 200.867188 162.433594 211.558594 173.121094 211.558594 186.265625 C 211.558594 199.410156 200.867188 210.101562 187.722656 210.101562 Z M 187.722656 210.101562 " fill-opacity="1" fill-rule="nonzero"/><path fill="#000000" d="M 187.722656 3.535156 C 86.957031 3.535156 4.988281 85.527344 4.988281 186.265625 C 4.988281 287.007812 86.957031 369 187.722656 369 C 288.488281 369 370.457031 287.019531 370.457031 186.265625 C 370.457031 85.511719 288.488281 3.535156 187.722656 3.535156 Z M 81.09375 219.011719 C 85.214844 217.4375 89.789062 219.457031 91.378906 223.550781 C 103.609375 255.128906 130.53125 278.71875 163.390625 286.664062 C 167.652344 287.683594 170.28125 291.980469 169.238281 296.25 C 168.363281 299.898438 165.121094 302.339844 161.546875 302.339844 C 160.925781 302.339844 160.304688 302.277344 159.679688 302.109375 C 121.773438 292.945312 90.691406 265.742188 76.570312 229.285156 C 74.96875 225.203125 77.003906 220.601562 81.09375 219.011719 Z M 164.269531 335.3125 C 163.835938 335.3125 163.40625 335.289062 162.945312 335.210938 C 106.265625 325.867188 59.128906 284.148438 42.882812 229.003906 C 41.636719 224.796875 44.039062 220.359375 48.261719 219.128906 C 52.492188 217.917969 56.890625 220.320312 58.097656 224.515625 C 72.65625 273.878906 114.808594 311.160156 165.515625 319.5625 C 169.847656 320.289062 172.773438 324.367188 172.0625 328.691406 C 171.453125 332.554688 168.082031 335.3125 164.269531 335.3125 Z M 187.722656 241.882812 C 157.0625 241.882812 132.109375 216.941406 132.109375 186.265625 C 132.109375 155.59375 157.0625 130.652344 187.722656 130.652344 C 218.382812 130.652344 243.335938 155.605469 243.335938 186.265625 C 243.335938 216.929688 218.382812 241.882812 187.722656 241.882812 Z M 298.953125 194.210938 C 294.554688 194.210938 291.007812 190.664062 291.007812 186.265625 C 291.007812 129.316406 244.671875 82.984375 187.722656 82.984375 C 183.324219 82.984375 179.777344 79.4375 179.777344 75.039062 C 179.777344 70.640625 183.324219 67.09375 187.722656 67.09375 C 253.441406 67.09375 306.894531 120.558594 306.894531 186.265625 C 306.894531 190.664062 303.347656 194.210938 298.953125 194.210938 Z M 330.730469 194.210938 C 326.332031 194.210938 322.785156 190.664062 322.785156 186.265625 C 322.785156 111.789062 262.175781 51.203125 187.722656 51.203125 C 183.324219 51.203125 179.777344 47.65625 179.777344 43.257812 C 179.777344 38.859375 183.324219 35.3125 187.722656 35.3125 C 270.960938 35.3125 338.675781 103.042969 338.675781 186.265625 C 338.675781 190.664062 335.128906 194.210938 330.730469 194.210938 Z M 330.730469 194.210938 " fill-opacity="1" fill-rule="nonzero"/></svg>