<svg xmlns="http://www.w3.org/2000/svg" xmlns:xlink="http://www.w3.org/1999/xlink" width="500" zoomAndPan="magnify" viewBox="0 0 375 374.999991" height="500" preserveAspectRatio="xMidYMid meet" version="1.0"><defs><g/><clipPath id="id1"><path d="M 122 90 L 255.808594 90 L 255.808594 223.917969 L 122 223.917969 Z M 122 90 " clip-rule="nonzero"/></clipPath></defs><path fill="#ffffff" d="M 191.898438 157.402344 C 191.898438 159 190.601562 160.292969 189.007812 160.292969 C 187.410156 160.292969 186.113281 159 186.113281 157.402344 C 186.113281 155.804688 187.410156 154.511719 189.007812 154.511719 C 190.601562 154.511719 191.898438 155.804688 191.898438 157.402344 Z M 191.898438 157.402344 " fill-opacity="1" fill-rule="nonzero"/><path fill="#ffffff" d="M 189.007812 142.941406 C 181.035156 142.941406 174.546875 149.429688 174.546875 157.402344 C 174.546875 165.375 181.035156 171.863281 189.007812 171.863281 C 196.976562 171.863281 203.464844 165.382812 203.464844 157.402344 C 203.464844 149.425781 196.976562 142.941406 189.007812 142.941406 Z M 189.007812 166.078125 C 184.222656 166.078125 180.328125 162.191406 180.328125 157.402344 C 180.328125 152.613281 184.222656 148.726562 189.007812 148.726562 C 193.789062 148.726562 197.683594 152.617188 197.683594 157.402344 C 197.683594 162.1875 193.789062 166.078125 189.007812 166.078125 Z M 189.007812 166.078125 " fill-opacity="1" fill-rule="nonzero"/><g clip-path="url(#id1)"><path fill="#ffffff" d="M 189.007812 90.886719 C 152.328125 90.886719 122.492188 120.730469 122.492188 157.402344 C 122.492188 194.070312 152.328125 223.917969 189.007812 223.917969 C 225.683594 223.917969 255.519531 194.078125 255.519531 157.402344 C 255.519531 120.726562 225.683594 90.886719 189.007812 90.886719 Z M 150.195312 169.320312 C 151.691406 168.746094 153.359375 169.484375 153.9375 170.972656 C 158.386719 182.46875 168.1875 191.054688 180.148438 193.949219 C 181.699219 194.316406 182.65625 195.882812 182.277344 197.4375 C 181.957031 198.765625 180.777344 199.652344 179.480469 199.652344 C 179.25 199.652344 179.023438 199.628906 178.796875 199.570312 C 165 196.234375 153.6875 186.332031 148.546875 173.058594 C 147.964844 171.574219 148.703125 169.898438 150.195312 169.320312 Z M 180.46875 211.65625 C 180.3125 211.65625 180.152344 211.644531 179.988281 211.617188 C 159.355469 208.21875 142.199219 193.03125 136.285156 172.957031 C 135.832031 171.425781 136.707031 169.8125 138.242188 169.363281 C 139.78125 168.925781 141.382812 169.796875 141.824219 171.324219 C 147.121094 189.292969 162.464844 202.863281 180.921875 205.921875 C 182.5 206.1875 183.5625 207.671875 183.304688 209.246094 C 183.082031 210.652344 181.855469 211.65625 180.46875 211.65625 Z M 189.007812 177.644531 C 177.84375 177.644531 168.761719 168.566406 168.761719 157.402344 C 168.761719 146.238281 177.84375 137.160156 189.007812 137.160156 C 200.167969 137.160156 209.25 146.242188 209.25 157.402344 C 209.25 168.5625 200.167969 177.644531 189.007812 177.644531 Z M 229.492188 160.292969 C 227.890625 160.292969 226.601562 159.003906 226.601562 157.402344 C 226.601562 136.671875 209.734375 119.808594 189.007812 119.808594 C 187.40625 119.808594 186.113281 118.515625 186.113281 116.914062 C 186.113281 115.3125 187.40625 114.023438 189.007812 114.023438 C 212.929688 114.023438 232.386719 133.484375 232.386719 157.402344 C 232.386719 159.003906 231.09375 160.292969 229.492188 160.292969 Z M 241.0625 160.292969 C 239.460938 160.292969 238.167969 159.003906 238.167969 157.402344 C 238.167969 130.292969 216.105469 108.238281 189.007812 108.238281 C 187.40625 108.238281 186.113281 106.949219 186.113281 105.347656 C 186.113281 103.746094 187.40625 102.457031 189.007812 102.457031 C 219.304688 102.457031 243.953125 127.109375 243.953125 157.402344 C 243.953125 159.003906 242.660156 160.292969 241.0625 160.292969 Z M 241.0625 160.292969 " fill-opacity="1" fill-rule="nonzero"/></g><g fill="#ffffff" fill-opacity="1"><g transform="translate(158.70499, 283.982794)"><g><path d="M 7.453125 0 L 3.09375 -11.390625 L 3.03125 -11.390625 C 3.101562 -10.484375 3.140625 -9.410156 3.140625 -8.171875 L 3.140625 0 L 1.765625 0 L 1.765625 -12.84375 L 4.015625 -12.84375 L 8.09375 -2.25 L 8.15625 -2.25 L 12.265625 -12.84375 L 14.5 -12.84375 L 14.5 0 L 13 0 L 13 -8.28125 C 13 -9.226562 13.039062 -10.257812 13.125 -11.375 L 13.046875 -11.375 L 8.65625 0 Z M 7.453125 0 "/></g></g><g transform="translate(174.955965, 283.982794)"><g><path d="M 2.921875 -9.640625 L 2.921875 -3.390625 C 2.921875 -2.597656 3.097656 -2.007812 3.453125 -1.625 C 3.804688 -1.238281 4.367188 -1.046875 5.140625 -1.046875 C 6.140625 -1.046875 6.875 -1.320312 7.34375 -1.875 C 7.8125 -2.425781 8.046875 -3.328125 8.046875 -4.578125 L 8.046875 -9.640625 L 9.5 -9.640625 L 9.5 0 L 8.296875 0 L 8.09375 -1.296875 L 8 -1.296875 C 7.707031 -0.816406 7.296875 -0.453125 6.765625 -0.203125 C 6.234375 0.046875 5.628906 0.171875 4.953125 0.171875 C 3.773438 0.171875 2.894531 -0.101562 2.3125 -0.65625 C 1.726562 -1.21875 1.4375 -2.109375 1.4375 -3.328125 L 1.4375 -9.640625 Z M 2.921875 -9.640625 "/></g></g><g transform="translate(186.003816, 283.982794)"><g><path d="M 7.765625 -2.625 C 7.765625 -1.726562 7.425781 -1.035156 6.75 -0.546875 C 6.082031 -0.0664062 5.148438 0.171875 3.953125 0.171875 C 2.671875 0.171875 1.671875 -0.03125 0.953125 -0.4375 L 0.953125 -1.78125 C 1.421875 -1.550781 1.921875 -1.367188 2.453125 -1.234375 C 2.984375 -1.097656 3.492188 -1.03125 3.984375 -1.03125 C 4.742188 -1.03125 5.328125 -1.148438 5.734375 -1.390625 C 6.148438 -1.640625 6.359375 -2.007812 6.359375 -2.5 C 6.359375 -2.875 6.191406 -3.195312 5.859375 -3.46875 C 5.535156 -3.738281 4.90625 -4.050781 3.96875 -4.40625 C 3.070312 -4.738281 2.429688 -5.03125 2.046875 -5.28125 C 1.671875 -5.53125 1.390625 -5.8125 1.203125 -6.125 C 1.023438 -6.445312 0.9375 -6.828125 0.9375 -7.265625 C 0.9375 -8.054688 1.253906 -8.675781 1.890625 -9.125 C 2.523438 -9.582031 3.398438 -9.8125 4.515625 -9.8125 C 5.554688 -9.8125 6.570312 -9.597656 7.5625 -9.171875 L 7.046875 -7.984375 C 6.078125 -8.390625 5.195312 -8.59375 4.40625 -8.59375 C 3.71875 -8.59375 3.195312 -8.484375 2.84375 -8.265625 C 2.5 -8.046875 2.328125 -7.742188 2.328125 -7.359375 C 2.328125 -7.109375 2.390625 -6.890625 2.515625 -6.703125 C 2.648438 -6.523438 2.863281 -6.351562 3.15625 -6.1875 C 3.445312 -6.019531 4.007812 -5.78125 4.84375 -5.46875 C 5.988281 -5.0625 6.757812 -4.644531 7.15625 -4.21875 C 7.5625 -3.800781 7.765625 -3.269531 7.765625 -2.625 Z M 7.765625 -2.625 "/></g></g><g transform="translate(194.590729, 283.982794)"><g><path d="M 3 0 L 1.546875 0 L 1.546875 -9.640625 L 3 -9.640625 Z M 1.421875 -12.25 C 1.421875 -12.582031 1.503906 -12.820312 1.671875 -12.96875 C 1.835938 -13.125 2.039062 -13.203125 2.28125 -13.203125 C 2.519531 -13.203125 2.722656 -13.125 2.890625 -12.96875 C 3.054688 -12.8125 3.140625 -12.570312 3.140625 -12.25 C 3.140625 -11.914062 3.054688 -11.664062 2.890625 -11.5 C 2.722656 -11.34375 2.519531 -11.265625 2.28125 -11.265625 C 2.039062 -11.265625 1.835938 -11.34375 1.671875 -11.5 C 1.503906 -11.664062 1.421875 -11.914062 1.421875 -12.25 Z M 1.421875 -12.25 "/></g></g><g transform="translate(199.143463, 283.982794)"><g><path d="M 5.390625 0.171875 C 4.003906 0.171875 2.925781 -0.253906 2.15625 -1.109375 C 1.394531 -1.972656 1.015625 -3.1875 1.015625 -4.75 C 1.015625 -6.363281 1.398438 -7.609375 2.171875 -8.484375 C 2.953125 -9.367188 4.0625 -9.8125 5.5 -9.8125 C 5.957031 -9.8125 6.414062 -9.757812 6.875 -9.65625 C 7.34375 -9.5625 7.707031 -9.445312 7.96875 -9.3125 L 7.53125 -8.0625 C 7.207031 -8.195312 6.851562 -8.304688 6.46875 -8.390625 C 6.082031 -8.472656 5.742188 -8.515625 5.453125 -8.515625 C 3.492188 -8.515625 2.515625 -7.265625 2.515625 -4.765625 C 2.515625 -3.585938 2.753906 -2.679688 3.234375 -2.046875 C 3.710938 -1.410156 4.421875 -1.09375 5.359375 -1.09375 C 6.160156 -1.09375 6.984375 -1.269531 7.828125 -1.625 L 7.828125 -0.328125 C 7.179688 0.00390625 6.367188 0.171875 5.390625 0.171875 Z M 5.390625 0.171875 "/></g></g><g transform="translate(207.712799, 283.982794)"><g><path d="M 7.765625 -2.625 C 7.765625 -1.726562 7.425781 -1.035156 6.75 -0.546875 C 6.082031 -0.0664062 5.148438 0.171875 3.953125 0.171875 C 2.671875 0.171875 1.671875 -0.03125 0.953125 -0.4375 L 0.953125 -1.78125 C 1.421875 -1.550781 1.921875 -1.367188 2.453125 -1.234375 C 2.984375 -1.097656 3.492188 -1.03125 3.984375 -1.03125 C 4.742188 -1.03125 5.328125 -1.148438 5.734375 -1.390625 C 6.148438 -1.640625 6.359375 -2.007812 6.359375 -2.5 C 6.359375 -2.875 6.191406 -3.195312 5.859375 -3.46875 C 5.535156 -3.738281 4.90625 -4.050781 3.96875 -4.40625 C 3.070312 -4.738281 2.429688 -5.03125 2.046875 -5.28125 C 1.671875 -5.53125 1.390625 -5.8125 1.203125 -6.125 C 1.023438 -6.445312 0.9375 -6.828125 0.9375 -7.265625 C 0.9375 -8.054688 1.253906 -8.675781 1.890625 -9.125 C 2.523438 -9.582031 3.398438 -9.8125 4.515625 -9.8125 C 5.554688 -9.8125 6.570312 -9.597656 7.5625 -9.171875 L 7.046875 -7.984375 C 6.078125 -8.390625 5.195312 -8.59375 4.40625 -8.59375 C 3.71875 -8.59375 3.195312 -8.484375 2.84375 -8.265625 C 2.5 -8.046875 2.328125 -7.742188 2.328125 -7.359375 C 2.328125 -7.109375 2.390625 -6.890625 2.515625 -6.703125 C 2.648438 -6.523438 2.863281 -6.351562 3.15625 -6.1875 C 3.445312 -6.019531 4.007812 -5.78125 4.84375 -5.46875 C 5.988281 -5.0625 6.757812 -4.644531 7.15625 -4.21875 C 7.5625 -3.800781 7.765625 -3.269531 7.765625 -2.625 Z M 7.765625 -2.625 "/></g></g></g><g fill="#ffffff" fill-opacity="1"><g transform="translate(121.803447, 263.28281)"><g><path d="M 0.578125 -19.859375 L 0.578125 -26.03125 L 22.21875 -26.03125 L 22.21875 -19.859375 L 20.15625 -19.859375 C 19.6875 -19.859375 19.398438 -20.085938 19.296875 -20.546875 C 19.203125 -21.078125 19.140625 -21.570312 19.109375 -22.03125 L 13.8125 -22.03125 L 13.8125 -3.5625 C 13.957031 -3.539062 14.148438 -3.507812 14.390625 -3.46875 C 14.628906 -3.425781 14.789062 -3.398438 14.875 -3.390625 C 14.957031 -3.378906 15.054688 -3.351562 15.171875 -3.3125 C 15.296875 -3.28125 15.375 -3.265625 15.40625 -3.265625 C 15.445312 -3.265625 15.488281 -3.257812 15.53125 -3.25 C 15.582031 -3.238281 15.613281 -3.234375 15.625 -3.234375 C 16.25 -3.097656 16.5625 -2.726562 16.5625 -2.125 L 16.5625 0 L 6.265625 0 L 6.265625 -2.125 C 6.265625 -2.726562 6.566406 -3.097656 7.171875 -3.234375 L 7.25 -3.25 C 7.289062 -3.257812 7.335938 -3.265625 7.390625 -3.265625 C 7.421875 -3.265625 7.5 -3.28125 7.625 -3.3125 C 7.75 -3.351562 7.847656 -3.378906 7.921875 -3.390625 C 8.003906 -3.398438 8.160156 -3.425781 8.390625 -3.46875 C 8.628906 -3.507812 8.820312 -3.539062 8.96875 -3.5625 L 8.96875 -22.0625 L 3.671875 -22.0625 C 3.617188 -21.40625 3.5625 -20.898438 3.5 -20.546875 C 3.394531 -20.085938 3.117188 -19.859375 2.671875 -19.859375 Z M 0.578125 -19.859375 "/></g></g></g><g fill="#ffffff" fill-opacity="1"><g transform="translate(145.124695, 263.28281)"><g><path d="M 0.515625 -13.03125 C 0.515625 -15.007812 0.820312 -16.769531 1.4375 -18.3125 C 2.09375 -19.945312 3 -21.351562 4.15625 -22.53125 C 5.320312 -23.738281 6.707031 -24.664062 8.3125 -25.3125 C 9.976562 -25.976562 11.78125 -26.3125 13.71875 -26.3125 C 15.71875 -26.3125 17.503906 -25.976562 19.078125 -25.3125 C 20.765625 -24.59375 22.15625 -23.664062 23.25 -22.53125 C 24.363281 -21.382812 25.253906 -19.976562 25.921875 -18.3125 C 26.566406 -16.707031 26.890625 -14.945312 26.890625 -13.03125 C 26.890625 -11.082031 26.566406 -9.304688 25.921875 -7.703125 C 25.253906 -6.046875 24.363281 -4.644531 23.25 -3.5 C 22.09375 -2.300781 20.703125 -1.375 19.078125 -0.71875 C 17.410156 -0.0507812 15.625 0.28125 13.71875 0.28125 C 11.78125 0.28125 9.976562 -0.0507812 8.3125 -0.71875 C 6.707031 -1.363281 5.320312 -2.289062 4.15625 -3.5 C 2.988281 -4.695312 2.082031 -6.097656 1.4375 -7.703125 C 0.820312 -9.242188 0.515625 -11.019531 0.515625 -13.03125 Z M 5.4375 -13.03125 C 5.4375 -11.570312 5.628906 -10.285156 6.015625 -9.171875 C 6.410156 -8.015625 6.960938 -7.054688 7.671875 -6.296875 C 8.359375 -5.535156 9.222656 -4.925781 10.265625 -4.46875 C 11.203125 -4.050781 12.351562 -3.84375 13.71875 -3.84375 C 15.0625 -3.84375 16.203125 -4.050781 17.140625 -4.46875 C 18.160156 -4.914062 19.019531 -5.523438 19.71875 -6.296875 C 20.457031 -7.117188 21 -8.078125 21.34375 -9.171875 C 21.726562 -10.453125 21.921875 -11.738281 21.921875 -13.03125 C 21.921875 -14.289062 21.726562 -15.5625 21.34375 -16.84375 C 21 -17.945312 20.457031 -18.90625 19.71875 -19.71875 C 19 -20.519531 18.140625 -21.132812 17.140625 -21.5625 C 16.203125 -21.976562 15.0625 -22.1875 13.71875 -22.1875 C 12.351562 -22.1875 11.203125 -21.976562 10.265625 -21.5625 C 9.242188 -21.125 8.378906 -20.507812 7.671875 -19.71875 C 6.960938 -18.957031 6.410156 -18 6.015625 -16.84375 C 5.628906 -15.726562 5.4375 -14.457031 5.4375 -13.03125 Z M 5.4375 -13.03125 "/></g></g></g><g fill="#ffffff" fill-opacity="1"><g transform="translate(173.086569, 263.28281)"><g><path d="M 0.71875 0 L 0.71875 -2.125 C 0.71875 -2.726562 1.019531 -3.097656 1.625 -3.234375 C 1.6875 -3.234375 1.753906 -3.242188 1.828125 -3.265625 C 1.984375 -3.316406 2.164062 -3.359375 2.375 -3.390625 C 2.445312 -3.398438 2.535156 -3.414062 2.640625 -3.4375 C 2.753906 -3.457031 2.894531 -3.476562 3.0625 -3.5 C 3.226562 -3.519531 3.363281 -3.539062 3.46875 -3.5625 L 3.46875 -22.46875 C 3.363281 -22.488281 3.226562 -22.507812 3.0625 -22.53125 C 2.894531 -22.5625 2.753906 -22.582031 2.640625 -22.59375 C 2.535156 -22.613281 2.445312 -22.628906 2.375 -22.640625 C 2.289062 -22.648438 2.1875 -22.671875 2.0625 -22.703125 C 1.9375 -22.734375 1.859375 -22.75 1.828125 -22.75 C 1.785156 -22.75 1.738281 -22.753906 1.6875 -22.765625 L 1.625 -22.78125 C 1.019531 -22.925781 0.71875 -23.300781 0.71875 -23.90625 L 0.71875 -26.03125 L 5.984375 -26.03125 C 6.046875 -26.03125 6.140625 -26.023438 6.265625 -26.015625 C 6.398438 -26.003906 6.484375 -26 6.515625 -26 C 6.671875 -26 6.800781 -25.960938 6.90625 -25.890625 C 7.007812 -25.859375 7.125 -25.785156 7.25 -25.671875 C 7.289062 -25.617188 7.40625 -25.476562 7.59375 -25.25 L 21.265625 -7.84375 C 21.253906 -7.976562 21.222656 -8.390625 21.171875 -9.078125 C 21.140625 -9.335938 21.125 -9.722656 21.125 -10.234375 L 21.125 -22.46875 C 19.613281 -22.675781 18.835938 -22.78125 18.796875 -22.78125 C 18.191406 -22.925781 17.890625 -23.300781 17.890625 -23.90625 L 17.890625 -26.03125 L 28.109375 -26.03125 L 28.109375 -23.90625 C 28.109375 -23.300781 27.8125 -22.925781 27.21875 -22.78125 L 27.140625 -22.765625 C 27.097656 -22.753906 27.050781 -22.75 27 -22.75 C 26.96875 -22.75 26.890625 -22.734375 26.765625 -22.703125 C 26.640625 -22.671875 26.535156 -22.648438 26.453125 -22.640625 C 26.367188 -22.628906 26.207031 -22.601562 25.96875 -22.5625 C 25.738281 -22.519531 25.554688 -22.488281 25.421875 -22.46875 L 25.421875 0 L 22.90625 0 C 22.539062 0 22.222656 -0.0546875 21.953125 -0.171875 C 21.710938 -0.273438 21.460938 -0.492188 21.203125 -0.828125 L 7.59375 -18.140625 C 7.644531 -17.597656 7.671875 -17.226562 7.671875 -17.03125 C 7.671875 -16.914062 7.675781 -16.738281 7.6875 -16.5 C 7.695312 -16.257812 7.703125 -16.085938 7.703125 -15.984375 L 7.703125 -3.5625 C 8.117188 -3.507812 8.523438 -3.453125 8.921875 -3.390625 C 9.328125 -3.335938 9.609375 -3.296875 9.765625 -3.265625 C 9.921875 -3.242188 10.007812 -3.234375 10.03125 -3.234375 C 10.644531 -3.097656 10.953125 -2.726562 10.953125 -2.125 L 10.953125 0 Z M 0.71875 0 "/></g></g></g><g fill="#ffffff" fill-opacity="1"><g transform="translate(202.278911, 263.28281)"><g><path d="M 0.578125 -23.90625 L 0.578125 -26.03125 L 10.296875 -26.03125 L 10.296875 -23.90625 C 10.296875 -23.300781 10 -22.925781 9.40625 -22.78125 C 9.394531 -22.78125 9.367188 -22.773438 9.328125 -22.765625 C 9.296875 -22.753906 9.269531 -22.75 9.25 -22.75 C 9.195312 -22.726562 9.078125 -22.691406 8.890625 -22.640625 C 8.847656 -22.628906 8.679688 -22.59375 8.390625 -22.53125 L 11.84375 -16.25 C 12.113281 -15.75 12.351562 -15.265625 12.5625 -14.796875 C 12.644531 -14.609375 12.742188 -14.359375 12.859375 -14.046875 C 12.984375 -13.734375 13.0625 -13.53125 13.09375 -13.4375 C 13.175781 -13.726562 13.359375 -14.179688 13.640625 -14.796875 C 13.847656 -15.265625 14.085938 -15.75 14.359375 -16.25 L 17.796875 -22.53125 C 17.765625 -22.53125 17.675781 -22.546875 17.53125 -22.578125 C 17.394531 -22.609375 17.300781 -22.628906 17.25 -22.640625 C 17.195312 -22.648438 17.132812 -22.671875 17.0625 -22.703125 C 17 -22.734375 16.953125 -22.75 16.921875 -22.75 C 16.878906 -22.769531 16.816406 -22.78125 16.734375 -22.78125 C 16.140625 -22.925781 15.84375 -23.300781 15.84375 -23.90625 L 15.84375 -26.03125 L 25.5625 -26.03125 L 25.5625 -23.90625 C 25.5625 -23.300781 25.257812 -22.925781 24.65625 -22.78125 C 24.632812 -22.78125 24.601562 -22.773438 24.5625 -22.765625 C 24.519531 -22.753906 24.484375 -22.75 24.453125 -22.75 C 24.421875 -22.75 24.34375 -22.734375 24.21875 -22.703125 C 24.09375 -22.671875 23.988281 -22.648438 23.90625 -22.640625 C 23.820312 -22.628906 23.660156 -22.601562 23.421875 -22.5625 C 23.179688 -22.519531 22.992188 -22.488281 22.859375 -22.46875 L 15.515625 -10.109375 L 15.515625 -3.5625 C 15.660156 -3.539062 15.847656 -3.507812 16.078125 -3.46875 C 16.316406 -3.425781 16.476562 -3.398438 16.5625 -3.390625 C 16.644531 -3.378906 16.742188 -3.351562 16.859375 -3.3125 C 16.984375 -3.28125 17.0625 -3.265625 17.09375 -3.265625 C 17.132812 -3.265625 17.175781 -3.257812 17.21875 -3.25 C 17.269531 -3.238281 17.300781 -3.234375 17.3125 -3.234375 C 17.914062 -3.097656 18.21875 -2.726562 18.21875 -2.125 L 18.21875 0 L 7.921875 0 L 7.921875 -2.125 C 7.921875 -2.726562 8.222656 -3.097656 8.828125 -3.234375 C 8.921875 -3.234375 9.003906 -3.242188 9.078125 -3.265625 C 9.234375 -3.316406 9.410156 -3.359375 9.609375 -3.390625 C 9.691406 -3.398438 9.847656 -3.425781 10.078125 -3.46875 C 10.316406 -3.507812 10.507812 -3.539062 10.65625 -3.5625 L 10.65625 -10.109375 L 3.3125 -22.46875 C 3.1875 -22.488281 3 -22.519531 2.75 -22.5625 C 2.5 -22.601562 2.328125 -22.628906 2.234375 -22.640625 C 2.148438 -22.648438 2.046875 -22.671875 1.921875 -22.703125 C 1.796875 -22.734375 1.71875 -22.75 1.6875 -22.75 C 1.613281 -22.769531 1.546875 -22.78125 1.484375 -22.78125 C 0.878906 -22.925781 0.578125 -23.300781 0.578125 -23.90625 Z M 0.578125 -23.90625 "/></g></g></g><g fill="#ffffff" fill-opacity="1"><g transform="translate(228.940004, 263.28281)"><g><path d="M 0.859375 -20.84375 L 0.859375 -26.03125 L 4.71875 -26.03125 L 4.71875 -20.84375 L 4.328125 -18.03125 C 4.265625 -17.550781 4.101562 -17.144531 3.84375 -16.8125 C 3.644531 -16.550781 3.28125 -16.421875 2.75 -16.421875 C 2.289062 -16.421875 1.945312 -16.550781 1.71875 -16.8125 C 1.46875 -17.101562 1.304688 -17.507812 1.234375 -18.03125 Z M 0.859375 -20.84375 "/></g></g></g><g fill="#ffffff" fill-opacity="1"><g transform="translate(235.017114, 263.28281)"><g><path d="M 0.65625 -1.078125 L 0.65625 -7.765625 L 2.703125 -7.765625 C 3.148438 -7.765625 3.425781 -7.554688 3.53125 -7.140625 C 3.601562 -6.835938 3.707031 -5.84375 3.84375 -4.15625 C 4.875 -3.832031 6.523438 -3.671875 8.796875 -3.671875 C 10.171875 -3.671875 11.234375 -3.992188 11.984375 -4.640625 C 12.722656 -5.273438 13.09375 -6.210938 13.09375 -7.453125 C 13.09375 -8.117188 12.929688 -8.679688 12.609375 -9.140625 C 12.285156 -9.578125 11.828125 -9.941406 11.234375 -10.234375 C 10.554688 -10.554688 9.914062 -10.804688 9.3125 -10.984375 C 8.03125 -11.359375 7.304688 -11.578125 7.140625 -11.640625 C 6.523438 -11.835938 5.789062 -12.125 4.9375 -12.5 C 4.25 -12.800781 3.597656 -13.238281 2.984375 -13.8125 C 2.398438 -14.363281 1.957031 -15.039062 1.65625 -15.84375 C 1.289062 -16.738281 1.109375 -17.734375 1.109375 -18.828125 C 1.109375 -19.828125 1.300781 -20.753906 1.6875 -21.609375 C 2.039062 -22.492188 2.59375 -23.296875 3.34375 -24.015625 C 4 -24.628906 4.890625 -25.179688 6.015625 -25.671875 C 7.035156 -26.097656 8.25 -26.3125 9.65625 -26.3125 C 12.175781 -26.3125 14.660156 -25.820312 17.109375 -24.84375 L 17.109375 -18.171875 L 15.046875 -18.171875 C 14.597656 -18.171875 14.320312 -18.398438 14.21875 -18.859375 C 14.144531 -19.160156 14.039062 -20.132812 13.90625 -21.78125 C 13.050781 -22.164062 11.644531 -22.359375 9.6875 -22.359375 C 9.039062 -22.359375 8.46875 -22.289062 7.96875 -22.15625 C 7.425781 -21.96875 7.003906 -21.738281 6.703125 -21.46875 C 6.335938 -21.144531 6.070312 -20.789062 5.90625 -20.40625 C 5.738281 -20.03125 5.65625 -19.585938 5.65625 -19.078125 C 5.65625 -18.515625 5.832031 -18.007812 6.1875 -17.5625 C 6.519531 -17.132812 6.96875 -16.789062 7.53125 -16.53125 C 8.289062 -16.15625 8.9375 -15.890625 9.46875 -15.734375 C 9.75 -15.648438 10.164062 -15.515625 10.71875 -15.328125 C 11.269531 -15.140625 11.585938 -15.035156 11.671875 -15.015625 C 12.023438 -14.898438 12.753906 -14.597656 13.859375 -14.109375 C 14.566406 -13.796875 15.210938 -13.363281 15.796875 -12.8125 C 16.429688 -12.21875 16.890625 -11.585938 17.171875 -10.921875 C 17.515625 -10.191406 17.6875 -9.265625 17.6875 -8.140625 C 17.6875 -7.003906 17.476562 -5.90625 17.0625 -4.84375 C 16.65625 -3.789062 16.066406 -2.894531 15.296875 -2.15625 C 14.535156 -1.394531 13.59375 -0.796875 12.46875 -0.359375 C 11.394531 0.0664062 10.125 0.28125 8.65625 0.28125 L 8.109375 0.28125 C 5.816406 0.28125 3.332031 -0.171875 0.65625 -1.078125 Z M 0.65625 -1.078125 "/></g></g></g></svg>