<svg xmlns="http://www.w3.org/2000/svg" xmlns:xlink="http://www.w3.org/1999/xlink" width="500" zoomAndPan="magnify" viewBox="0 0 375 374.999991" height="500" preserveAspectRatio="xMidYMid meet" version="1.0"><defs><clipPath id="id1"><path d="M 0.5625 1 L 374 1 L 374 374.039062 L 0.5625 374.039062 Z M 0.5625 1 " clip-rule="nonzero"/></clipPath></defs><path fill="#ffffff" d="M 195.128906 187.652344 C 195.128906 192.128906 191.503906 195.753906 187.027344 195.753906 C 182.550781 195.753906 178.921875 192.128906 178.921875 187.652344 C 178.921875 183.175781 182.550781 179.546875 187.027344 179.546875 C 191.503906 179.546875 195.128906 183.175781 195.128906 187.652344 Z M 195.128906 187.652344 " fill-opacity="1" fill-rule="nonzero"/><path fill="#ffffff" d="M 187.027344 147.132812 C 164.683594 147.132812 146.507812 165.308594 146.507812 187.652344 C 146.507812 209.992188 164.683594 228.167969 187.027344 228.167969 C 209.367188 228.167969 227.546875 210.015625 227.546875 187.652344 C 227.546875 165.296875 209.367188 147.132812 187.027344 147.132812 Z M 187.027344 211.960938 C 173.617188 211.960938 162.714844 201.070312 162.714844 187.652344 C 162.714844 174.230469 173.617188 163.339844 187.027344 163.339844 C 200.433594 163.339844 211.335938 174.242188 211.335938 187.652344 C 211.335938 201.058594 200.433594 211.960938 187.027344 211.960938 Z M 187.027344 211.960938 " fill-opacity="1" fill-rule="nonzero"/><g clip-path="url(#id1)"><path fill="#ffffff" d="M 187.027344 1.261719 C 84.242188 1.261719 0.636719 84.894531 0.636719 187.652344 C 0.636719 290.40625 84.242188 374.039062 187.027344 374.039062 C 289.808594 374.039062 373.414062 290.417969 373.414062 187.652344 C 373.414062 84.882812 289.808594 1.261719 187.027344 1.261719 Z M 78.265625 221.050781 C 82.46875 219.445312 87.136719 221.503906 88.753906 225.679688 C 101.230469 257.886719 128.691406 281.953125 162.207031 290.058594 C 166.550781 291.09375 169.238281 295.476562 168.171875 299.832031 C 167.277344 303.554688 163.972656 306.042969 160.328125 306.042969 C 159.691406 306.042969 159.058594 305.980469 158.421875 305.8125 C 119.757812 296.460938 88.054688 268.714844 73.648438 231.527344 C 72.015625 227.367188 74.089844 222.671875 78.265625 221.050781 Z M 163.101562 339.679688 C 162.664062 339.679688 162.222656 339.652344 161.753906 339.574219 C 103.9375 330.042969 55.859375 287.488281 39.289062 231.242188 C 38.019531 226.949219 40.46875 222.425781 44.773438 221.167969 C 49.09375 219.9375 53.578125 222.386719 54.808594 226.664062 C 69.65625 277.011719 112.652344 315.042969 164.375 323.613281 C 168.796875 324.351562 171.777344 328.515625 171.050781 332.921875 C 170.429688 336.863281 166.992188 339.679688 163.101562 339.679688 Z M 187.027344 244.378906 C 155.75 244.378906 130.300781 218.9375 130.300781 187.652344 C 130.300781 156.363281 155.75 130.925781 187.027344 130.925781 C 218.300781 130.925781 243.753906 156.375 243.753906 187.652344 C 243.753906 218.925781 218.300781 244.378906 187.027344 244.378906 Z M 300.480469 195.753906 C 295.992188 195.753906 292.375 192.136719 292.375 187.652344 C 292.375 129.5625 245.113281 82.300781 187.027344 82.300781 C 182.539062 82.300781 178.921875 78.683594 178.921875 74.195312 C 178.921875 69.710938 182.539062 66.09375 187.027344 66.09375 C 254.0625 66.09375 308.582031 120.628906 308.582031 187.652344 C 308.582031 192.136719 304.964844 195.753906 300.480469 195.753906 Z M 332.894531 195.753906 C 328.410156 195.753906 324.789062 192.136719 324.789062 187.652344 C 324.789062 111.683594 262.96875 49.886719 187.027344 49.886719 C 182.539062 49.886719 178.921875 46.269531 178.921875 41.78125 C 178.921875 37.296875 182.539062 33.679688 187.027344 33.679688 C 271.929688 33.679688 341 102.761719 341 187.652344 C 341 192.136719 337.378906 195.753906 332.894531 195.753906 Z M 332.894531 195.753906 " fill-opacity="1" fill-rule="nonzero"/></g></svg>